<svg width="172" height="78" viewBox="0 0 172 78" fill="none" xmlns="http://www.w3.org/2000/svg">
<path d="M61 39C61 51.7025 50.7025 62 38 62C25.2975 62 15 51.7025 15 39C15 26.2975 25.2975 16 38 16C50.7025 16 61 26.2975 61 39Z" fill="#F2B310"/>
<path d="M30.6499 41.7642C31.6715 45.4577 34.4416 47.3044 38.9601 47.3044C41.8677 47.3044 44.068 46.3221 45.5611 44.3575L51.6906 47.8937C48.783 52.0979 44.5002 54.2001 38.8422 54.2001C33.9701 54.2001 30.0605 52.7266 27.1137 49.7797C24.1668 46.8329 22.6934 43.1198 22.6934 38.6406C22.6934 34.2006 24.1472 30.5072 27.0547 27.5603C29.9623 24.5741 33.695 23.0811 38.2529 23.0811C42.5749 23.0811 46.1308 24.5741 48.9205 27.5603C51.7495 30.5465 53.164 34.2399 53.164 38.6406C53.164 39.6228 53.0658 40.6641 52.8694 41.7642H30.6499ZM30.532 35.8705H45.5611C45.1289 33.8666 44.2252 32.3735 42.85 31.3912C41.5141 30.4089 39.9817 29.9178 38.2529 29.9178C36.2097 29.9178 34.5202 30.4482 33.1842 31.5091C31.8483 32.5307 30.9643 33.9845 30.532 35.8705Z" fill="white"/>
<path d="M153.387 27.0643C153.675 26.2963 154.147 25.7203 154.803 25.3363C155.475 24.9523 156.219 24.7603 157.035 24.7603V28.2163C156.091 28.1043 155.243 28.2963 154.491 28.7923C153.755 29.2883 153.387 30.1123 153.387 31.2643V37.0003H150.291V25.0003H153.387V27.0643Z" fill="#3EC300"/>
<path d="M145.898 23.5601C145.386 23.5601 144.938 23.3761 144.554 23.0081C144.186 22.6241 144.002 22.1761 144.002 21.6641C144.002 21.1521 144.186 20.7041 144.554 20.3201C144.938 19.9361 145.386 19.7441 145.898 19.7441C146.426 19.7441 146.874 19.9361 147.242 20.3201C147.626 20.7041 147.818 21.1521 147.818 21.6641C147.818 22.1761 147.626 22.6241 147.242 23.0081C146.874 23.3761 146.426 23.5601 145.898 23.5601ZM144.362 37.0001V25.0001H147.458V37.0001H144.362Z" fill="#3EC300"/>
<path d="M137.196 24.6641C138.572 24.6641 139.668 25.1121 140.484 26.0081C141.316 26.9041 141.732 28.1041 141.732 29.6081V37.0001H138.636V29.8241C138.636 29.1041 138.46 28.5441 138.108 28.1441C137.756 27.7441 137.26 27.5441 136.62 27.5441C135.916 27.5441 135.364 27.7761 134.964 28.2401C134.58 28.7041 134.388 29.3761 134.388 30.2561V37.0001H131.292V29.8241C131.292 29.1041 131.116 28.5441 130.764 28.1441C130.412 27.7441 129.916 27.5441 129.276 27.5441C128.588 27.5441 128.036 27.7761 127.62 28.2401C127.22 28.7041 127.02 29.3761 127.02 30.2561V37.0001H123.924V25.0001H127.02V26.2721C127.74 25.2001 128.852 24.6641 130.356 24.6641C131.828 24.6641 132.916 25.2401 133.62 26.3921C134.42 25.2401 135.612 24.6641 137.196 24.6641Z" fill="#3EC300"/>
<path d="M116.744 24.6642C118.056 24.6642 119.136 25.1042 119.984 25.9842C120.848 26.8642 121.28 28.0802 121.28 29.6322V37.0002H118.184V30.0162C118.184 29.2162 117.968 28.6082 117.536 28.1922C117.104 27.7602 116.528 27.5442 115.808 27.5442C115.008 27.5442 114.368 27.7922 113.888 28.2882C113.408 28.7842 113.168 29.5282 113.168 30.5202V37.0002H110.072V20.2002H113.168V26.3442C113.92 25.2242 115.112 24.6642 116.744 24.6642Z" fill="#3EC300"/>
<path d="M101.889 28.4081C101.889 28.7281 102.097 28.9921 102.513 29.2001C102.945 29.3921 103.465 29.5681 104.073 29.7281C104.681 29.8721 105.289 30.0641 105.897 30.3041C106.505 30.5281 107.017 30.9121 107.433 31.4561C107.865 32.0001 108.081 32.6801 108.081 33.4961C108.081 34.7281 107.617 35.6801 106.689 36.3521C105.777 37.0081 104.633 37.3361 103.257 37.3361C100.793 37.3361 99.1128 36.3841 98.2168 34.4801L100.905 32.9681C101.257 34.0081 102.041 34.5281 103.257 34.5281C104.361 34.5281 104.913 34.1841 104.913 33.4961C104.913 33.1761 104.697 32.9201 104.265 32.7281C103.849 32.5201 103.337 32.3361 102.729 32.1761C102.121 32.0161 101.513 31.8161 100.905 31.5761C100.297 31.3361 99.7768 30.9601 99.3448 30.4481C98.9288 29.9201 98.7208 29.2641 98.7208 28.4801C98.7208 27.2961 99.1528 26.3681 100.017 25.6961C100.897 25.0081 101.985 24.6641 103.281 24.6641C104.257 24.6641 105.145 24.8881 105.945 25.3361C106.745 25.7681 107.377 26.3921 107.841 27.2081L105.201 28.6481C104.817 27.8321 104.177 27.4241 103.281 27.4241C102.881 27.4241 102.545 27.5121 102.273 27.6881C102.017 27.8641 101.889 28.1041 101.889 28.4081Z" fill="#3EC300"/>
<path d="M93.2245 25.0001H96.3205V37.0001H93.2245V35.5841C92.2965 36.7521 90.9925 37.3361 89.3125 37.3361C87.7125 37.3361 86.3365 36.7281 85.1845 35.5121C84.0485 34.2801 83.4805 32.7761 83.4805 31.0001C83.4805 29.2241 84.0485 27.7281 85.1845 26.5121C86.3365 25.2801 87.7125 24.6641 89.3125 24.6641C90.9925 24.6641 92.2965 25.2481 93.2245 26.4161V25.0001ZM87.5125 33.4481C88.1365 34.0721 88.9285 34.3841 89.8885 34.3841C90.8485 34.3841 91.6405 34.0721 92.2645 33.4481C92.9045 32.8081 93.2245 31.9921 93.2245 31.0001C93.2245 30.0081 92.9045 29.2001 92.2645 28.5761C91.6405 27.9361 90.8485 27.6161 89.8885 27.6161C88.9285 27.6161 88.1365 27.9361 87.5125 28.5761C86.8885 29.2001 86.5765 30.0081 86.5765 31.0001C86.5765 31.9921 86.8885 32.8081 87.5125 33.4481Z" fill="#3EC300"/>
<path d="M83.6885 37.0002H79.8725L73.8725 29.1282V37.0002H70.5605V20.2002H73.8725V27.6162L79.6325 20.2002H83.4485L77.2325 28.3602L83.6885 37.0002Z" fill="#3EC300"/>
<path d="M134.229 49.2654C135.362 49.2654 136.275 49.632 136.969 50.3654C137.662 51.0987 138.009 52.0854 138.009 53.3254V59.5254H135.849V53.4654C135.849 52.772 135.675 52.2387 135.329 51.8654C134.982 51.4787 134.509 51.2854 133.909 51.2854C133.242 51.2854 132.709 51.5054 132.309 51.9454C131.922 52.3854 131.729 53.0454 131.729 53.9254V59.5254H129.569V53.4654C129.569 52.772 129.402 52.2387 129.069 51.8654C128.749 51.4787 128.289 51.2854 127.689 51.2854C127.035 51.2854 126.502 51.512 126.089 51.9654C125.675 52.4054 125.469 53.0587 125.469 53.9254V59.5254H123.309V49.5254H125.469V50.7254C126.109 49.752 127.062 49.2654 128.329 49.2654C129.609 49.2654 130.555 49.792 131.169 50.8454C131.835 49.792 132.855 49.2654 134.229 49.2654Z" fill="#F2B310"/>
<path d="M116.03 52.2854C116.03 52.6187 116.21 52.8854 116.57 53.0854C116.943 53.272 117.39 53.4387 117.91 53.5854C118.443 53.7187 118.976 53.8787 119.51 54.0654C120.043 54.252 120.49 54.572 120.85 55.0254C121.223 55.4654 121.41 56.0254 121.41 56.7054C121.41 57.6654 121.036 58.4187 120.29 58.9654C119.556 59.512 118.63 59.7854 117.51 59.7854C116.523 59.7854 115.676 59.5787 114.97 59.1654C114.263 58.752 113.75 58.1787 113.43 57.4454L115.29 56.3654C115.636 57.3254 116.376 57.8054 117.51 57.8054C118.643 57.8054 119.21 57.432 119.21 56.6854C119.21 56.3654 119.023 56.1054 118.65 55.9054C118.29 55.7054 117.843 55.5387 117.31 55.4054C116.79 55.2587 116.263 55.092 115.73 54.9054C115.196 54.7187 114.743 54.412 114.37 53.9854C114.01 53.5454 113.83 52.992 113.83 52.3254C113.83 51.4054 114.176 50.6654 114.87 50.1054C115.576 49.5454 116.45 49.2654 117.49 49.2654C118.316 49.2654 119.05 49.452 119.69 49.8254C120.343 50.1854 120.843 50.692 121.19 51.3454L119.37 52.3654C119.023 51.6054 118.396 51.2254 117.49 51.2254C117.076 51.2254 116.73 51.3187 116.45 51.5054C116.17 51.6787 116.03 51.9387 116.03 52.2854Z" fill="#F2B310"/>
<path d="M111.52 47.6254C111.253 47.892 110.933 48.0254 110.56 48.0254C110.186 48.0254 109.86 47.892 109.58 47.6254C109.313 47.3454 109.18 47.0187 109.18 46.6454C109.18 46.272 109.313 45.952 109.58 45.6854C109.846 45.4054 110.173 45.2654 110.56 45.2654C110.946 45.2654 111.273 45.4054 111.54 45.6854C111.806 45.952 111.94 46.272 111.94 46.6454C111.94 47.0187 111.8 47.3454 111.52 47.6254ZM109.48 59.5254V49.5254H111.64V59.5254H109.48Z" fill="#F2B310"/>
<path d="M104.805 51.2052C105.351 49.9652 106.378 49.3452 107.885 49.3452V51.6852C107.058 51.6319 106.338 51.8319 105.725 52.2852C105.111 52.7252 104.805 53.4585 104.805 54.4852V59.5252H102.645V49.5252H104.805V51.2052Z" fill="#F2B310"/>
<path d="M97.9576 49.5254H100.118V59.5254H97.9576V58.2454C97.3042 59.2721 96.2709 59.7854 94.8576 59.7854C93.7109 59.7854 92.7842 59.4187 92.0776 58.6854C91.3709 57.9521 91.0176 56.9454 91.0176 55.6654V49.5254H93.1776V55.4454C93.1776 56.1921 93.3776 56.7654 93.7776 57.1654C94.1776 57.5654 94.7242 57.7654 95.4176 57.7654C96.1776 57.7654 96.7909 57.5321 97.2576 57.0654C97.7242 56.5854 97.9576 55.8587 97.9576 54.8854V49.5254Z" fill="#F2B310"/>
<path d="M83.9851 59.7854C82.5184 59.7854 81.2717 59.2787 80.2451 58.2654C79.2184 57.252 78.7051 56.0054 78.7051 54.5254C78.7051 53.0454 79.2184 51.7987 80.2451 50.7854C81.2717 49.772 82.5184 49.2654 83.9851 49.2654C85.4651 49.2654 86.7117 49.772 87.7251 50.7854C88.7517 51.7987 89.2651 53.0454 89.2651 54.5254C89.2651 56.0054 88.7517 57.252 87.7251 58.2654C86.7117 59.2787 85.4651 59.7854 83.9851 59.7854ZM81.7651 56.7854C82.3651 57.3854 83.1051 57.6854 83.9851 57.6854C84.8651 57.6854 85.6051 57.3854 86.2051 56.7854C86.8051 56.1854 87.1051 55.432 87.1051 54.5254C87.1051 53.6187 86.8051 52.8654 86.2051 52.2654C85.6051 51.6654 84.8651 51.3654 83.9851 51.3654C83.1051 51.3654 82.3651 51.6654 81.7651 52.2654C81.1651 52.8654 80.8651 53.6187 80.8651 54.5254C80.8651 55.432 81.1651 56.1854 81.7651 56.7854Z" fill="#F2B310"/>
<path d="M79.5008 45.5254V47.7254H75.5608V59.5254H73.2608V47.7254H69.3008V45.5254H79.5008Z" fill="#F2B310"/>
</svg>
